<svg width="317" height="85" viewBox="0 0 317 85" fill="none" xmlns="http://www.w3.org/2000/svg">
<path d="M46.2305 46.875L42.0703 39.375H18.75C13.5547 39.375 9.12109 37.5586 5.44922 33.9258C1.81641 30.2539 0 25.8203 0 20.625C0 15.4297 1.81641 11.0156 5.44922 7.38281C9.12109 3.71094 13.5547 1.875 18.75 1.875H48.75L45 9.375H18.75C15.625 9.375 12.9688 10.4688 10.7812 12.6562C8.59375 14.8438 7.5 17.5 7.5 20.625C7.5 23.75 8.59375 26.4062 10.7812 28.5938C12.9688 30.7812 15.625 31.875 18.75 31.875H37.9102L33.75 24.375H18.75V16.875H37.5L53.8477 46.875H46.2305ZM51.5625 39.375L70.3125 0L89.0625 39.375H80.625L70.3125 17.8125L60 39.375H51.5625ZM98.4375 13.125V39.375H90.9375V1.875H98.4375L120.938 28.125V1.875H128.438V39.375H120.938L98.4375 13.125ZM174.258 24.375H153.633V16.875H174.258V24.375ZM174.258 1.875V9.375H144.258V31.875H174.258V39.375H136.758V1.875H174.258ZM224.238 39.375H179.238V31.875H224.238C225.293 31.875 226.172 31.5234 226.875 30.8203C227.617 30.0781 227.988 29.1797 227.988 28.125C227.988 27.0703 227.617 26.1914 226.875 25.4883C226.172 24.7461 225.293 24.375 224.238 24.375H209.238C206.113 24.375 203.457 23.2812 201.27 21.0938C199.082 18.9062 197.988 16.25 197.988 13.125C197.988 10 199.082 7.34375 201.27 5.15625C203.457 2.96875 206.113 1.875 209.238 1.875H231.738V9.375H209.238C208.184 9.375 207.285 9.74609 206.543 10.4883C205.84 11.1914 205.488 12.0703 205.488 13.125C205.488 14.1797 205.84 15.0781 206.543 15.8203C207.285 16.5234 208.184 16.875 209.238 16.875H224.238C227.363 16.875 230.02 17.9688 232.207 20.1562C234.395 22.3438 235.488 25 235.488 28.125C235.488 31.25 234.395 33.9062 232.207 36.0938C230.02 38.2812 227.363 39.375 224.238 39.375ZM246.855 24.375V39.375H239.355V1.875H246.855V16.875H269.355V1.875H276.855V39.375H269.355V24.375H246.855ZM278.73 39.375L297.48 0L316.23 39.375H307.793L297.48 17.8125L287.168 39.375H278.73Z" fill="white"/>
<path d="M68.584 84.375H23.584V76.875H68.584C69.6387 76.875 70.5176 76.5234 71.2207 75.8203C71.9629 75.0781 72.334 74.1797 72.334 73.125C72.334 72.0703 71.9629 71.1914 71.2207 70.4883C70.5176 69.7461 69.6387 69.375 68.584 69.375H53.584C50.459 69.375 47.8027 68.2812 45.6152 66.0938C43.4277 63.9062 42.334 61.25 42.334 58.125C42.334 55 43.4277 52.3438 45.6152 50.1562C47.8027 47.9688 50.459 46.875 53.584 46.875H76.084V54.375H53.584C52.5293 54.375 51.6309 54.7461 50.8887 55.4883C50.1855 56.1914 49.834 57.0703 49.834 58.125C49.834 59.1797 50.1855 60.0781 50.8887 60.8203C51.6309 61.5234 52.5293 61.875 53.584 61.875H68.584C71.709 61.875 74.3652 62.9688 76.5527 65.1562C78.7402 67.3438 79.834 70 79.834 73.125C79.834 76.25 78.7402 78.9062 76.5527 81.0938C74.3652 83.2812 71.709 84.375 68.584 84.375ZM82.2363 65.625V46.875H89.7363V65.625C89.7363 68.75 90.8301 71.4062 93.0176 73.5938C95.2051 75.7812 97.8613 76.875 100.986 76.875C104.111 76.875 106.768 75.7812 108.955 73.5938C111.143 71.4062 112.236 68.75 112.236 65.625V46.875H119.736V65.625C119.736 70.8203 117.9 75.2539 114.229 78.9258C110.596 82.5586 106.182 84.375 100.986 84.375C95.791 84.375 91.3574 82.5586 87.6855 78.9258C84.0527 75.2539 82.2363 70.8203 82.2363 65.625ZM152.314 84.375H126.064V46.875H152.314C157.51 46.875 161.924 48.7109 165.557 52.3828C169.229 56.0156 171.064 60.4297 171.064 65.625C171.064 70.8203 169.229 75.2539 165.557 78.9258C161.924 82.5586 157.51 84.375 152.314 84.375ZM133.564 76.875H152.314C155.439 76.875 158.096 75.7812 160.283 73.5938C162.471 71.4062 163.564 68.75 163.564 65.625C163.564 62.5 162.471 59.8438 160.283 57.6562C158.096 55.4688 155.439 54.375 152.314 54.375H133.564V76.875ZM193.33 84.375C188.135 84.375 183.701 82.5586 180.029 78.9258C176.396 75.2539 174.58 70.8203 174.58 65.625C174.58 60.4297 176.396 56.0156 180.029 52.3828C183.701 48.7109 188.135 46.875 193.33 46.875C198.525 46.875 202.939 48.7109 206.572 52.3828C210.244 56.0156 212.08 60.4297 212.08 65.625C212.08 70.8203 210.244 75.2539 206.572 78.9258C202.939 82.5586 198.525 84.375 193.33 84.375ZM193.33 76.875C196.455 76.875 199.111 75.7812 201.299 73.5938C203.486 71.4062 204.58 68.75 204.58 65.625C204.58 62.5 203.486 59.8438 201.299 57.6562C199.111 55.4688 196.455 54.375 193.33 54.375C190.205 54.375 187.549 55.4688 185.361 57.6562C183.174 59.8438 182.08 62.5 182.08 65.625C182.08 68.75 183.174 71.4062 185.361 73.5938C187.549 75.7812 190.205 76.875 193.33 76.875ZM223.916 70.957V84.375H216.416V46.875H223.916V60.293L242.666 46.875H253.916L227.666 65.625L253.916 84.375H242.666L223.916 70.957ZM255.146 65.625V46.875H262.646V65.625C262.646 68.75 263.74 71.4062 265.928 73.5938C268.115 75.7812 270.771 76.875 273.896 76.875C277.021 76.875 279.678 75.7812 281.865 73.5938C284.053 71.4062 285.146 68.75 285.146 65.625V46.875H292.646V65.625C292.646 70.8203 290.811 75.2539 287.139 78.9258C283.506 82.5586 279.092 84.375 273.896 84.375C268.701 84.375 264.268 82.5586 260.596 78.9258C256.963 75.2539 255.146 70.8203 255.146 65.625Z" fill="#ED1B76"/>
</svg>
