<svg width="155" height="155" viewBox="0 0 155 155" fill="none" xmlns="http://www.w3.org/2000/svg">
<g clip-path="url(#clip0_79_854)">
<path fill-rule="evenodd" clip-rule="evenodd" d="M115.029 87.1875C112.874 95.5029 108.019 102.868 101.228 108.127C94.4357 113.387 86.0903 116.244 77.5 116.25C68.9097 116.244 60.5643 113.387 53.7725 108.127C46.9806 102.868 42.1262 95.5029 39.9706 87.1875H115.029ZM0 77.5C0 34.7006 34.7781 0 77.5 0C120.299 0 155 34.7781 155 77.5C155 120.299 120.222 155 77.5 155C34.7006 155 0 120.222 0 77.5ZM19.375 77.5C19.375 109.537 45.3956 135.625 77.5 135.625C109.537 135.625 135.625 109.604 135.625 77.5C135.625 45.4634 109.604 19.375 77.5 19.375C45.4634 19.375 19.375 45.3956 19.375 77.5ZM48.4375 48.4375H67.8125V67.8125H48.4375V48.4375ZM87.1875 48.4375H106.562V67.8125H87.1875V48.4375Z" fill="#FF00DD"/>
</g>
<defs>
<clipPath id="clip0_79_854">
<rect width="155" height="155" fill="white"/>
</clipPath>
</defs>
</svg>
